<?xml version="1.0" encoding="UTF-8"?>
<svg xmlns="http://www.w3.org/2000/svg" viewBox="0 0 189.99998 80.1734">
  <defs>
    <style>
      .uuid-71e2224f-8e74-4fef-84eb-15dae1628c87 {
        fill: #fff;
      }

      .uuid-b62d2464-3fc6-4005-a774-dc3a06ce38f2 {
        fill: #099;
      }
    </style>
  </defs>
  <g id="uuid-299c49a6-d390-436e-a636-a51834466d73" data-name="Capa 1"/>
  <g id="uuid-2a02fe0d-0006-49ae-83ac-9bc5928107f1" data-name="Capa 2">
    <g id="uuid-afc10cb1-f305-44a1-8e59-b49aa0cd70f9" data-name="Capa 1">
      <g>
        <rect class="uuid-b62d2464-3fc6-4005-a774-dc3a06ce38f2" width="189.99998" height="80.1734" rx="5" ry="5"/>
        <g>
          <g>
            <path class="uuid-71e2224f-8e74-4fef-84eb-15dae1628c87" d="M118.06768,50.15219h-48.91163c-.4911,0-.8896-.38203-.8896-.85495s.3985-.85495,.8896-.85495h48.91163c.4911,0,.8896,.38203,.8896,.85495s-.3985,.85495-.8896,.85495Z"/>
            <path class="uuid-71e2224f-8e74-4fef-84eb-15dae1628c87" d="M82.49564,50.15219h-10.67142c-.4911,0-.8896-.38203-.8896-.85495V18.50785c0-.47293,.3985-.85495,.8896-.85495h10.67142c.4911,0,.8896,.38203,.8896,.85495v30.78938c0,.47293-.3985,.85495-.8896,.85495Zm-9.78182-1.70991h8.89221V19.3628h-8.89221v29.07948Z"/>
            <path class="uuid-71e2224f-8e74-4fef-84eb-15dae1628c87" d="M105.61706,50.15219h-23.12141c-.4911,0-.8896-.38203-.8896-.85495V9.95463c0-.47293,.3985-.85495,.8896-.85495h23.12141c.4911,0,.8896,.38203,.8896,.85495V49.29723c0,.47293-.3985,.85495-.8896,.85495Zm-22.23181-1.70991h21.3422V10.80958h-21.3422V48.44228Z"/>
            <path class="uuid-71e2224f-8e74-4fef-84eb-15dae1628c87" d="M111.56648,50.15219h-5.94943c-.4911,0-.8896-.38203-.8896-.85495V18.50785c0-.47293,.3985-.85495,.8896-.85495h10.67206c.4911,0,.8896,.38203,.8896,.85495v27.544c0,.47293-.3985,.85495-.8896,.85495s-.8896-.38203-.8896-.85495V19.3628h-8.89285v29.07948h5.05982c.4911,0,.8896,.38203,.8896,.85495s-.3985,.85495-.8896,.85495Z"/>
            <path class="uuid-71e2224f-8e74-4fef-84eb-15dae1628c87" d="M107.39563,10.80958h-26.67855c-.4911,0-.8896-.38203-.8896-.85495v-3.42104c0-.47293,.3985-.85495,.8896-.85495h26.67855c.4911,0,.8896,.38203,.8896,.85495v3.42104c0,.47293-.3985,.85495-.8896,.85495Zm-25.78895-1.70991h24.89934v-1.71114h-24.89934v1.71114Z"/>
            <path class="uuid-71e2224f-8e74-4fef-84eb-15dae1628c87" d="M95.83524,27.9148h-3.55714c-.4911,0-.8896-.38203-.8896-.85495v-3.42104h-3.55714c-.4911,0-.8896-.38203-.8896-.85495v-3.42104c0-.47293,.3985-.85495,.8896-.85495h3.55714v-3.42104c0-.47293,.3985-.85495,.8896-.85495h3.55714c.4911,0,.8896,.38203,.8896,.85495v3.42104h3.5565c.4911,0,.8896,.38203,.8896,.85495v3.42104c0,.47293-.3985,.85495-.8896,.85495h-3.5565v3.42104c0,.47293-.3985,.85495-.8896,.85495Zm-2.66754-1.70991h1.77793v-3.42104c0-.47293,.3985-.85495,.8896-.85495h3.5565v-1.71114h-3.5565c-.4911,0-.8896-.38203-.8896-.85495v-3.42104h-1.77793v3.42104c0,.47293-.3985,.85495-.8896,.85495h-3.55714v1.71114h3.55714c.4911,0,.8896,.38203,.8896,.85495v3.42104Z"/>
            <path class="uuid-71e2224f-8e74-4fef-84eb-15dae1628c87" d="M98.50278,46.69306c-.4911,0-.8896-.38203-.8896-.85495v-9.37009h-7.11364v9.37009c0,.47293-.3985,.85495-.8896,.85495s-.8896-.38203-.8896-.85495v-10.22505c0-.47293,.3985-.85495,.8896-.85495h8.89285c.4911,0,.8896,.38203,.8896,.85495v10.22505c0,.47293-.3985,.85495-.8896,.85495Z"/>
            <path class="uuid-71e2224f-8e74-4fef-84eb-15dae1628c87" d="M120.59561,50.37084c-.5706-.05307-.98869-.54087-.93323-1.08958,.05491-.54872,.56215-.95051,1.13275-.89771,.57087,.05307,.98869,.54087,.9335,1.08958s-.56215,.95078-1.13303,.89771Z"/>
            <path class="uuid-71e2224f-8e74-4fef-84eb-15dae1628c87" d="M81.62584,39.00954h-6.50695c-.4911,0-.8896-.38203-.8896-.85495s.3985-.85495,.8896-.85495h6.50695c.4911,0,.8896,.38203,.8896,.85495s-.3985,.85495-.8896,.85495Z"/>
            <path class="uuid-71e2224f-8e74-4fef-84eb-15dae1628c87" d="M81.62584,26.73432h-6.50695c-.4911,0-.8896-.38203-.8896-.85495s.3985-.85495,.8896-.85495h6.50695c.4911,0,.8896,.38203,.8896,.85495s-.3985,.85495-.8896,.85495Z"/>
            <path class="uuid-71e2224f-8e74-4fef-84eb-15dae1628c87" d="M81.62584,32.39102h-6.50695c-.4911,0-.8896-.38203-.8896-.85495s.3985-.85495,.8896-.85495h6.50695c.4911,0,.8896,.38203,.8896,.85495s-.3985,.85495-.8896,.85495Z"/>
            <path class="uuid-71e2224f-8e74-4fef-84eb-15dae1628c87" d="M112.53336,39.00954h-6.50695c-.4911,0-.8896-.38203-.8896-.85495s.3985-.85495,.8896-.85495h6.50695c.4911,0,.8896,.38203,.8896,.85495s-.3985,.85495-.8896,.85495Z"/>
            <path class="uuid-71e2224f-8e74-4fef-84eb-15dae1628c87" d="M112.53336,26.73432h-6.50695c-.4911,0-.8896-.38203-.8896-.85495s.3985-.85495,.8896-.85495h6.50695c.4911,0,.8896,.38203,.8896,.85495s-.3985,.85495-.8896,.85495Z"/>
            <path class="uuid-71e2224f-8e74-4fef-84eb-15dae1628c87" d="M112.53336,32.39102h-6.50695c-.4911,0-.8896-.38203-.8896-.85495s.3985-.85495,.8896-.85495h6.50695c.4911,0,.8896,.38203,.8896,.85495s-.3985,.85495-.8896,.85495Z"/>
          </g>
          <g>
            <path class="uuid-71e2224f-8e74-4fef-84eb-15dae1628c87" d="M70.20191,59.59053c-1.1582,0-2.06934,.37988-2.73242,1.14062-.66406,.76074-.99512,1.80957-.99512,3.14844,0,1.40137,.31836,2.46094,.95703,3.17969,.6377,.71875,1.56152,1.07812,2.77051,1.07812,.52344,0,1.0293-.04785,1.51855-.14453s.99805-.21973,1.52637-.37109v1.60156c-.9668,.33887-2.06348,.50781-3.28906,.50781-1.80566,0-3.19141-.50684-4.1582-1.51953-.96777-1.0127-1.45117-2.46191-1.45117-4.34766,0-1.1875,.23438-2.22656,.7041-3.11719s1.14844-1.57324,2.03711-2.04688,1.93164-.71094,3.12988-.71094c1.25879,0,2.42285,.24512,3.49121,.73438l-.72461,1.55469c-.41699-.18262-.85645-.34277-1.32031-.48047s-.95215-.20703-1.46387-.20703Z"/>
            <path class="uuid-71e2224f-8e74-4fef-84eb-15dae1628c87" d="M77.67554,69.57491h-1.98242v-12.15625h1.98242v12.15625Z"/>
            <path class="uuid-71e2224f-8e74-4fef-84eb-15dae1628c87" d="M80.40796,59.87959v-.19531c.32129-.36426,.65137-.77051,.99121-1.21875,.34082-.44824,.6084-.83105,.80566-1.14844h2.30273v.16406c-.29199,.31738-.72949,.72754-1.31152,1.23047s-1.07227,.8916-1.47168,1.16797h-1.31641Zm2.08398,9.69531h-1.98242v-8.64062h1.98242v8.64062Z"/>
            <path class="uuid-71e2224f-8e74-4fef-84eb-15dae1628c87" d="M93.53296,69.57491h-1.99023v-5.3125c0-.66699-.14551-1.16406-.43457-1.49219-.29004-.32812-.75-.49219-1.37891-.49219-.83789,0-1.45117,.22949-1.83887,.6875-.38867,.45801-.58203,1.22656-.58203,2.30469v4.30469h-1.98242v-8.64062h1.55176l.27832,1.13281h.10156c.28125-.41113,.68066-.72949,1.19727-.95312,.51758-.22363,1.09082-.33594,1.7207-.33594,2.23828,0,3.35742,1.05469,3.35742,3.16406v5.63281Z"/>
            <path class="uuid-71e2224f-8e74-4fef-84eb-15dae1628c87" d="M96.17261,58.64522c0-.32812,.09668-.58105,.29102-.75781s.4707-.26562,.83105-.26562c.34863,0,.62012,.08887,.81348,.26562,.19434,.17676,.29102,.42969,.29102,.75781,0,.3125-.09668,.55859-.29102,.73828-.19336,.17969-.46484,.26953-.81348,.26953-.36035,0-.63672-.08984-.83105-.26953s-.29102-.42578-.29102-.73828Zm2.10059,10.92969h-1.98242v-8.64062h1.98242v8.64062Z"/>
            <path class="uuid-71e2224f-8e74-4fef-84eb-15dae1628c87" d="M104.8689,69.73116c-1.41113,0-2.4834-.38184-3.21777-1.14453-.7334-.7627-1.10059-1.8584-1.10059-3.28516,0-1.45312,.38379-2.57031,1.15137-3.35156s1.87695-1.17188,3.32715-1.17188c.98438,0,1.87012,.16895,2.65723,.50781l-.59863,1.47656c-.83789-.30176-1.53027-.45312-2.0752-.45312-1.61426,0-2.4209,.99219-2.4209,2.97656,0,.96875,.20117,1.69629,.60352,2.18359,.40137,.4873,.99121,.73047,1.7666,.73047,.88281,0,1.71777-.20312,2.50488-.60938v1.60156c-.35352,.19238-.73242,.33105-1.13379,.41406-.40234,.08301-.88965,.125-1.46387,.125Z"/>
            <path class="uuid-71e2224f-8e74-4fef-84eb-15dae1628c87" d="M115.49683,69.57491l-.39648-1.20312h-.06738c-.4502,.52637-.90234,.88379-1.3584,1.07422-.45508,.18945-1.04004,.28516-1.75391,.28516-.91699,0-1.63184-.22949-2.14648-.6875s-.77246-1.10645-.77246-1.94531c0-.89062,.35742-1.5625,1.07129-2.01562s1.80273-.7002,3.26465-.74219l1.61133-.04688v-.46094c0-.55176-.13965-.96484-.41797-1.23828s-.70996-.41016-1.29492-.41016c-.47754,0-.93652,.06543-1.375,.19531s-.86035,.28418-1.26465,.46094l-.6416-1.3125c.50684-.24512,1.06055-.43066,1.66211-.55859s1.16895-.19141,1.7041-.19141c1.18555,0,2.08105,.23926,2.68555,.71875s.90723,1.23145,.90723,2.25781v5.82031h-1.41699Zm-2.95215-1.25c.71973,0,1.29785-.18652,1.7334-.55859s.65332-.89453,.65332-1.56641v-.75l-1.19727,.04688c-.93359,.03125-1.6123,.17578-2.03711,.43359s-.63672,.65234-.63672,1.18359c0,.38574,.12305,.68359,.37109,.89453,.24707,.21094,.61816,.31641,1.11328,.31641Z"/>
            <path class="uuid-71e2224f-8e74-4fef-84eb-15dae1628c87" d="M125.94702,67.11397c0,.84375-.33105,1.49121-.99512,1.94141-.66309,.4502-1.61328,.67578-2.85059,.67578-1.24316,0-2.24121-.1748-2.99414-.52344v-1.58594c1.09668,.46875,2.11719,.70312,3.06152,.70312,1.21973,0,1.83008-.34082,1.83008-1.02344,0-.21875-.06738-.40137-.20215-.54688s-.35742-.29688-.66602-.45312c-.30957-.15625-.74023-.33301-1.29102-.53125-1.07422-.38574-1.80078-.77051-2.18066-1.15625-.37891-.38574-.56934-.88574-.56934-1.5,0-.73926,.32227-1.31348,.96582-1.72266,.64453-.40918,1.51953-.61328,2.62793-.61328,1.09668,0,2.13379,.20605,3.1123,.61719l-.64062,1.38281c-1.00684-.38574-1.85352-.57812-2.53906-.57812-1.0459,0-1.56934,.27637-1.56934,.82812,0,.27051,.13672,.5,.40918,.6875s.86719,.44531,1.78418,.77344c.77051,.27637,1.33008,.52832,1.67871,.75781s.60742,.49316,.77539,.79297c.16895,.2998,.25293,.65723,.25293,1.07422Z"/>
          </g>
        </g>
      </g>
    </g>
  </g>
</svg>