<?xml version="1.0" encoding="UTF-8"?>
<svg xmlns="http://www.w3.org/2000/svg" viewBox="0 0 189.99998 80.1734">
  <defs>
    <style>
      .uuid-1d4c252a-76d8-4d35-b154-8990e7679f93 {
        fill: #fff;
      }

      .uuid-d2df88d9-e0b9-4d10-86c8-83b0d14c1c12 {
        fill: #099;
      }
    </style>
  </defs>
  <g id="uuid-92c60aa0-992b-40e7-ae59-4531e4ff2000" data-name="Capa 1"/>
  <g id="uuid-92385b39-dbca-4051-bfcc-c8e2eaa9f9a8" data-name="Capa 2">
    <g id="uuid-278d7c6e-bdb4-4ec8-b199-a7300bf26f6e" data-name="Capa 1">
      <g>
        <rect class="uuid-d2df88d9-e0b9-4d10-86c8-83b0d14c1c12" width="189.99998" height="80.1734" rx="5" ry="5"/>
        <g>
          <g>
            <path class="uuid-1d4c252a-76d8-4d35-b154-8990e7679f93" d="M93.02352,21.67305c.10567,1.10106,1.08483,1.90738,2.18589,1.80144,1.10178-.10657,1.90819-1.08537,1.8018-2.18644-.10675-1.10106-1.08519-1.90783-2.18698-1.80135-1.10106,.10648-1.90783,1.08528-1.80072,2.18635Z"/>
            <path class="uuid-1d4c252a-76d8-4d35-b154-8990e7679f93" d="M123.26504,20.15102h-9.6553V10.00235c0-.97375-.79199-1.76574-1.7643-1.76574h-10.55115c-.97375,0-1.76574,.79199-1.76574,1.76574v11.47875c0,.73428,.59579,1.33007,1.33007,1.33007s1.33007-.59579,1.33007-1.33007V10.89676h8.76089v10.14867c0,.97375,.79199,1.76574,1.76574,1.76574h9.6553v8.17664h-9.6553c-.97375,0-1.76574,.79199-1.76574,1.76574v10.51365h-8.76089v-10.51365c0-.97375-.79199-1.76574-1.7643-1.76574h-9.77359v-8.60076c0-.73428-.59579-1.33007-1.33007-1.33007s-1.33007,.59579-1.33007,1.33007v9.49662c0,.97231,.79199,1.7643,1.76574,1.7643h.132c-.04039,.82291-.09665,1.64131-.18393,2.44755-1.15155,8.26157-2.89205,8.50104-3.0868,8.50104-.21964,0-.33685-.06681-.41475-.12496-.10783-.08133-.21639-.2823-.29681-.55098-.14101-.46975-.24741-.9312-.31737-1.37227-.06636-.42052-.088-1.01766-.06492-1.77611,.02597-.82192,.05157-1.49083,.07754-2.00485,.02561-.5178,.06456-1.21593,.11577-2.09474,.10892-1.57045,.1338-2.62661,.07465-3.21735-.43458-4.85398-2.94109-6.09479-5.12446-6.22282v-.00523c-.1017-.0046-.20413-.00956-.30367-.00956-.01587,0-.03246,.00126-.04833,.00153h-.00036c-2.25766,.01542-5.01916,1.11891-5.47718,6.23608-.05879,.59074-.03426,1.6469,.07502,3.21735,.05085,.87881,.09016,1.57694,.11541,2.09474,.02597,.51402,.05157,1.18293,.07754,2.00485,.02344,.75845,.0018,1.35559-.06492,1.77611-.06997,.44107-.17636,.90252-.31701,1.37227-.08042,.26868-.18898,.46966-.29717,.55098-.0779,.05815-.19511,.12496-.41475,.12496-.19439,0-1.93524-.23947-3.08644-8.50104-.2016-1.8596-.27842-3.7751-.22793-5.69348,.07321-2.75924-.01984-3.63381-.0916-4.02412-.17239-1.0961-.63402-2.46495-1.4105-4.18506-.69894-1.54746-1.2547-3.08869-1.65286-4.58034-.36894-1.38336-.41547-2.7843-.14498-4.13836,.48543-2.16209,1.52482-3.50172,3.18814-4.09896,1.15624-.42845,2.72182-.34352,4.65129,.25372,1.44981,.44874,2.6349,.74979,3.60361,.91416,.50996,.11333,1.00513,.13912,1.47433,.13669v.01298c.07754,0,.16049-.00866,.23983-.01082,.03606-.00126,.07682,.00243,.11252,.0009v-.00613c.36426-.01506,.73933-.0486,1.12162-.13362,.9687-.16437,2.15416-.46542,3.60361-.91416,1.92947-.59724,3.49505-.68217,4.65129-.25372,1.66367,.59724,2.70307,1.93687,3.18814,4.09896,.198,.98899,.16626,2.00269,.02344,3.01665,0,0,.08115,.76259,1.22621,.76259,.99611,0,1.09169-.76259,1.09169-.76259,.13092-1.163,.09701-2.32898-.13452-3.48513-.66359-2.96066-2.21691-4.88698-4.62172-5.7501-1.62292-.60147-3.67682-.52943-6.09173,.21792-1.4527,.44973-2.63851,.74555-3.53003,.88007-.14137,.01199-.32458,.01758-.52799,.01875v-.02056c-.53881,.03102-.95139,.02552-1.23306,.0018-.89152-.13452-2.07734-.43034-3.53003-.88007-2.41491-.74736-4.4688-.8194-6.09173-.21792-2.40481,.86312-3.95776,2.78944-4.62136,5.7501-.34514,1.72165-.28744,3.46728,.17095,5.18794,.42989,1.61084,1.02785,3.26847,1.77692,4.92764,.68271,1.51229,1.09962,2.72606,1.24316,3.63534,.05049,.27698,.12551,1.11116,.06023,3.58603-.05302,2.01937,.02777,4.03675,.24416,6.03024,1.00982,7.24788,2.65221,10.48002,5.32535,10.48002,.66287,0,1.25794-.19394,1.76826-.57623,.50779-.38112,.87962-.95644,1.10467-1.7084,.16987-.56577,.29934-1.12721,.38445-1.66719,.0898-.56694,.11974-1.28608,.0916-2.19969-.02669-.84004-.05265-1.52248-.07898-2.04632-.02633-.52213-.06528-1.22639-.11793-2.12585-.12334-1.78684-.11216-2.53609-.08006-2.86148,.32891-3.67285,1.88944-4.18083,3.23106-4.19246,1.34125,.01163,2.90214,.51961,3.2307,4.19246,.03246,.3254,.04364,1.07464-.0797,2.86148-.05265,.89946-.09233,1.60372-.11829,2.12585-.02597,.52384-.05193,1.20628-.07898,2.04632-.02813,.91361,.0018,1.63275,.0916,2.19969,.08547,.53998,.21459,1.10142,.38481,1.66719,.22505,.75195,.59651,1.32728,1.10431,1.7084,.51068,.38229,1.10539,.57623,1.76826,.57623,2.67313,0,4.31553-3.23214,5.32535-10.48002,.09846-.9037,.15833-1.81325,.20088-2.72489h7.38465v10.51365c0,.97375,.79199,1.76574,1.76574,1.76574h10.55115c.97231,0,1.7643-.79199,1.7643-1.76574v-10.51365h9.6553c.97375,0,1.76574-.79199,1.76574-1.7643v-9.96835c0-.97231-.79199-1.7643-1.76574-1.7643Z"/>
          </g>
          <g>
            <path class="uuid-1d4c252a-76d8-4d35-b154-8990e7679f93" d="M32.60425,58.4167c-1.1582,0-2.06934,.37988-2.73242,1.14062-.66406,.76074-.99512,1.80957-.99512,3.14844,0,1.40137,.31836,2.46094,.95703,3.17969,.6377,.71875,1.56152,1.07812,2.77051,1.07812,.52344,0,1.0293-.04785,1.51855-.14453s.99805-.21973,1.52637-.37109v1.60156c-.9668,.33887-2.06348,.50781-3.28906,.50781-1.80566,0-3.19141-.50684-4.1582-1.51953-.96777-1.0127-1.45117-2.46191-1.45117-4.34766,0-1.1875,.23438-2.22656,.7041-3.11719s1.14844-1.57324,2.03711-2.04688,1.93164-.71094,3.12988-.71094c1.25879,0,2.42285,.24512,3.49121,.73438l-.72461,1.55469c-.41699-.18262-.85645-.34277-1.32031-.48047s-.95215-.20703-1.46387-.20703Z"/>
            <path class="uuid-1d4c252a-76d8-4d35-b154-8990e7679f93" d="M42.16968,68.55733c-1.45117,0-2.58594-.3916-3.40332-1.17578-.81836-.78418-1.22754-1.86328-1.22754-3.23828,0-1.41113,.37988-2.52051,1.13867-3.32812s1.80176-1.21094,3.12891-1.21094c1.23145,0,2.2041,.34668,2.91895,1.03906,.71387,.69238,1.07129,1.64551,1.07129,2.85938v.99219h-6.2168c.02832,.83887,.27246,1.4834,.73438,1.93359,.46094,.4502,1.11035,.67578,1.94824,.67578,.55078,0,1.06348-.04785,1.53906-.14453s.98535-.25684,1.53125-.48047v1.49219c-.48438,.21387-.97363,.36426-1.46777,.45312-.49512,.08887-1.06055,.13281-1.69531,.13281Zm-.36328-7.5625c-.62988,0-1.13379,.18457-1.51367,.55469s-.60645,.90918-.67871,1.61719h4.23438c-.01172-.71387-.19727-1.25391-.55664-1.62109-.36035-.36719-.85547-.55078-1.48535-.55078Z"/>
            <path class="uuid-1d4c252a-76d8-4d35-b154-8990e7679f93" d="M56.25562,68.40108h-1.99023v-5.3125c0-.66699-.14551-1.16406-.43457-1.49219-.29004-.32812-.75-.49219-1.37891-.49219-.83789,0-1.45117,.22949-1.83887,.6875-.38867,.45801-.58203,1.22656-.58203,2.30469v4.30469h-1.98242v-8.64062h1.55176l.27832,1.13281h.10156c.28125-.41113,.68066-.72949,1.19727-.95312,.51758-.22363,1.09082-.33594,1.7207-.33594,2.23828,0,3.35742,1.05469,3.35742,3.16406v5.63281Z"/>
            <path class="uuid-1d4c252a-76d8-4d35-b154-8990e7679f93" d="M62.48901,67.07295c.4834,0,.9668-.07031,1.4502-.21094v1.38281c-.21875,.08887-.50195,.16309-.84766,.22266s-.7041,.08984-1.0752,.08984c-1.87793,0-2.81738-.91699-2.81738-2.75v-4.65625h-1.27344v-.8125l1.36621-.67188,.6748-1.82812h1.22266v1.92188h2.65723v1.39062h-2.65723v4.625c0,.44238,.12012,.76953,.3584,.98047,.23926,.21094,.55273,.31641,.94141,.31641Z"/>
            <path class="uuid-1d4c252a-76d8-4d35-b154-8990e7679f93" d="M70.53491,59.6042c.39941,0,.72852,.02637,.9873,.07812l-.19434,1.71094c-.28125-.0625-.57324-.09375-.87695-.09375-.79297,0-1.43555,.23926-1.92676,.71875-.49219,.47949-.73828,1.10156-.73828,1.86719v4.51562h-1.98242v-8.64062h1.55176l.26172,1.52344h.10156c.30859-.51562,.71191-.9248,1.20996-1.22656s1.0332-.45312,1.60645-.45312Z"/>
            <path class="uuid-1d4c252a-76d8-4d35-b154-8990e7679f93" d="M81.52612,64.06514c0,1.41113-.39062,2.5127-1.17285,3.30469-.78125,.79199-1.86914,1.1875-3.26367,1.1875-.87207,0-1.6416-.18262-2.31152-.54688-.66895-.36426-1.18359-.8877-1.54297-1.57031-.36035-.68262-.54004-1.47363-.54004-2.375,0-1.40137,.3877-2.49512,1.16406-3.28125s1.86914-1.17969,3.28125-1.17969c1.34961,0,2.41797,.40234,3.20508,1.20703s1.18066,1.88965,1.18066,3.25391Zm-6.79004,0c0,1.99512,.7959,2.99219,2.38672,2.99219,1.5752,0,2.3623-.99707,2.3623-2.99219,0-1.97363-.79297-2.96094-2.37891-2.96094-.83203,0-1.43555,.25488-1.80859,.76562-.37402,.51074-.56152,1.24219-.56152,2.19531Z"/>
            <path class="uuid-1d4c252a-76d8-4d35-b154-8990e7679f93" d="M90.07007,65.94014c0,.84375-.33105,1.49121-.99512,1.94141-.66309,.4502-1.61328,.67578-2.85059,.67578-1.24316,0-2.24121-.1748-2.99414-.52344v-1.58594c1.09668,.46875,2.11719,.70312,3.06152,.70312,1.21973,0,1.83008-.34082,1.83008-1.02344,0-.21875-.06738-.40137-.20215-.54688s-.35742-.29688-.66602-.45312c-.30957-.15625-.74023-.33301-1.29102-.53125-1.07422-.38574-1.80078-.77051-2.18066-1.15625-.37891-.38574-.56934-.88574-.56934-1.5,0-.73926,.32227-1.31348,.96582-1.72266,.64453-.40918,1.51953-.61328,2.62793-.61328,1.09668,0,2.13379,.20605,3.1123,.61719l-.64062,1.38281c-1.00684-.38574-1.85352-.57812-2.53906-.57812-1.0459,0-1.56934,.27637-1.56934,.82812,0,.27051,.13672,.5,.40918,.6875s.86719,.44531,1.78418,.77344c.77051,.27637,1.33008,.52832,1.67871,.75781s.60742,.49316,.77539,.79297c.16895,.2998,.25293,.65723,.25293,1.07422Z"/>
            <path class="uuid-1d4c252a-76d8-4d35-b154-8990e7679f93" d="M102.24194,68.40108l-3.57715-9.53906h-.06738c.0957,1.41699,.14355,2.74512,.14355,3.98438v5.55469h-1.83008v-11.42188h2.84277l3.42383,9.08594h.05078l3.52539-9.08594h2.85156v11.42188h-1.94043v-5.64844c0-.56738,.01562-1.30762,.04688-2.21875,.03027-.91113,.05762-1.46387,.08008-1.65625h-.06738l-3.70312,9.52344h-1.7793Z"/>
            <path class="uuid-1d4c252a-76d8-4d35-b154-8990e7679f93" d="M116.71558,68.55733c-1.45117,0-2.58594-.3916-3.40332-1.17578-.81836-.78418-1.22754-1.86328-1.22754-3.23828,0-1.41113,.37988-2.52051,1.13867-3.32812s1.80176-1.21094,3.12891-1.21094c1.23145,0,2.2041,.34668,2.91895,1.03906,.71387,.69238,1.07129,1.64551,1.07129,2.85938v.99219h-6.2168c.02832,.83887,.27246,1.4834,.73438,1.93359,.46094,.4502,1.11035,.67578,1.94824,.67578,.55078,0,1.06348-.04785,1.53906-.14453s.98535-.25684,1.53125-.48047v1.49219c-.48438,.21387-.97363,.36426-1.46777,.45312-.49512,.08887-1.06055,.13281-1.69531,.13281Zm-.36328-7.5625c-.62988,0-1.13379,.18457-1.51367,.55469s-.60645,.90918-.67871,1.61719h4.23438c-.01172-.71387-.19727-1.25391-.55664-1.62109-.36035-.36719-.85547-.55078-1.48535-.55078Zm-1.26465-2.28906v-.19531c.32031-.36426,.65039-.77051,.99121-1.21875,.33984-.44824,.6084-.83105,.80566-1.14844h2.30176v.16406c-.29199,.31738-.72949,.72754-1.31152,1.23047s-1.07227,.8916-1.47168,1.16797h-1.31543Z"/>
            <path class="uuid-1d4c252a-76d8-4d35-b154-8990e7679f93" d="M125.74097,68.55733c-1.16406,0-2.07227-.39062-2.72461-1.17188s-.97852-1.87793-.97852-3.28906c0-1.41699,.33008-2.51953,.99121-3.30859,.66016-.78906,1.57617-1.18359,2.74512-1.18359,1.22559,0,2.15918,.41895,2.80078,1.25781h.10059c-.0957-.62012-.14258-1.10938-.14258-1.46875v-3.14844h1.99023v12.15625h-1.55176l-.3457-1.13281h-.09277c-.63574,.85938-1.56641,1.28906-2.79199,1.28906Zm.53125-1.48438c.81543,0,1.4082-.21191,1.7793-.63672s.5625-1.11328,.57422-2.06641v-.25781c0-1.08887-.19141-1.8623-.57422-2.32031-.38184-.45801-.98145-.6875-1.7959-.6875-.69824,0-1.23438,.26172-1.61133,.78516s-.56543,1.26953-.56543,2.23828c0,.95801,.18262,1.68848,.54883,2.19141,.36523,.50293,.91309,.75391,1.64453,.75391Z"/>
            <path class="uuid-1d4c252a-76d8-4d35-b154-8990e7679f93" d="M133.23901,57.47139c0-.32812,.09668-.58105,.29102-.75781s.4707-.26562,.83105-.26562c.34863,0,.62012,.08887,.81348,.26562,.19434,.17676,.29102,.42969,.29102,.75781,0,.3125-.09668,.55859-.29102,.73828-.19336,.17969-.46484,.26953-.81348,.26953-.36035,0-.63672-.08984-.83105-.26953s-.29102-.42578-.29102-.73828Zm2.10059,10.92969h-1.98242v-8.64062h1.98242v8.64062Z"/>
            <path class="uuid-1d4c252a-76d8-4d35-b154-8990e7679f93" d="M141.9353,68.55733c-1.41113,0-2.4834-.38184-3.21777-1.14453-.7334-.7627-1.10059-1.8584-1.10059-3.28516,0-1.45312,.38379-2.57031,1.15137-3.35156s1.87695-1.17188,3.32715-1.17188c.98438,0,1.87012,.16895,2.65723,.50781l-.59863,1.47656c-.83789-.30176-1.53027-.45312-2.0752-.45312-1.61426,0-2.4209,.99219-2.4209,2.97656,0,.96875,.20117,1.69629,.60352,2.18359,.40137,.4873,.99121,.73047,1.7666,.73047,.88281,0,1.71777-.20312,2.50488-.60938v1.60156c-.35352,.19238-.73242,.33105-1.13379,.41406-.40234,.08301-.88965,.125-1.46387,.125Z"/>
            <path class="uuid-1d4c252a-76d8-4d35-b154-8990e7679f93" d="M155.00073,64.06514c0,1.41113-.39062,2.5127-1.17285,3.30469-.78125,.79199-1.86914,1.1875-3.26367,1.1875-.87207,0-1.6416-.18262-2.31152-.54688-.66895-.36426-1.18359-.8877-1.54297-1.57031-.36035-.68262-.54004-1.47363-.54004-2.375,0-1.40137,.3877-2.49512,1.16406-3.28125s1.86914-1.17969,3.28125-1.17969c1.34961,0,2.41797,.40234,3.20508,1.20703s1.18066,1.88965,1.18066,3.25391Zm-6.79004,0c0,1.99512,.7959,2.99219,2.38672,2.99219,1.5752,0,2.3623-.99707,2.3623-2.99219,0-1.97363-.79297-2.96094-2.37891-2.96094-.83203,0-1.43555,.25488-1.80859,.76562-.37402,.51074-.56152,1.24219-.56152,2.19531Z"/>
            <path class="uuid-1d4c252a-76d8-4d35-b154-8990e7679f93" d="M163.54468,65.94014c0,.84375-.33105,1.49121-.99512,1.94141-.66309,.4502-1.61328,.67578-2.85059,.67578-1.24316,0-2.24121-.1748-2.99414-.52344v-1.58594c1.09668,.46875,2.11719,.70312,3.06152,.70312,1.21973,0,1.83008-.34082,1.83008-1.02344,0-.21875-.06738-.40137-.20215-.54688s-.35742-.29688-.66602-.45312c-.30957-.15625-.74023-.33301-1.29102-.53125-1.07422-.38574-1.80078-.77051-2.18066-1.15625-.37891-.38574-.56934-.88574-.56934-1.5,0-.73926,.32227-1.31348,.96582-1.72266,.64453-.40918,1.51953-.61328,2.62793-.61328,1.09668,0,2.13379,.20605,3.1123,.61719l-.64062,1.38281c-1.00684-.38574-1.85352-.57812-2.53906-.57812-1.0459,0-1.56934,.27637-1.56934,.82812,0,.27051,.13672,.5,.40918,.6875s.86719,.44531,1.78418,.77344c.77051,.27637,1.33008,.52832,1.67871,.75781s.60742,.49316,.77539,.79297c.16895,.2998,.25293,.65723,.25293,1.07422Z"/>
          </g>
        </g>
      </g>
    </g>
  </g>
</svg>