<?xml version="1.0" encoding="utf-8"?>
<!-- Generator: Adobe Illustrator 26.5.0, SVG Export Plug-In . SVG Version: 6.00 Build 0)  -->
<svg version="1.1" id="Capa_2_00000008838774133208167020000006073003530481011383_"
	 xmlns="http://www.w3.org/2000/svg" xmlns:xlink="http://www.w3.org/1999/xlink" x="0px" y="0px" viewBox="0 0 190 80.2"
	 style="enable-background:new 0 0 190 80.2;" xml:space="preserve">
<style type="text/css">
	.st0{fill:#009999;}
	.st1{fill:#FFFFFF;}
</style>
<g id="Capa_1-2">
	<g id="uuid-9b944e2e-b629-4489-95eb-d0d1b3c448e6">
		<g id="uuid-fe5826dc-73ab-4dda-a02a-5d0d21fb784e">
			<g>
				<path class="st0" d="M5,0h180c2.8,0,5,2.2,5,5v70.2c0,2.8-2.2,5-5,5H5c-2.8,0-5-2.2-5-5V5C0,2.2,2.2,0,5,0z"/>
				<g>
					<path class="st1" d="M108.5,50.7h-26c-1.8,0-3.3-1.5-3.3-3.3s1.5-3.3,3.3-3.3h3.6v-3.4c0-0.5,0.4-0.9,0.9-0.9s0.9,0.4,0.9,0.9
						V45c0,0.5-0.4,0.9-0.9,0.9h-4.6c-0.8,0-1.4,0.6-1.4,1.4c0,0.8,0.6,1.4,1.4,1.4h26c0.8,0,1.4-0.6,1.4-1.4c0-0.8-0.6-1.4-1.4-1.4
						c-0.5,0-0.9-0.4-0.9-0.9v-2.9c0-0.3,0.2-0.7,0.5-0.8c2.2-1.3,3.6-3.6,3.6-6.2c0-2.5-1.3-4.8-3.4-6.1c-0.3-0.2-0.4-0.5-0.5-0.8
						c0-2.2-0.5-5.6-2.6-9.2l-2.6,2.8c1.1,2.2,1.5,4,1.6,5.3c0,0.5-0.3,0.9-0.8,1c-3.5,0.6-6,3.5-6,7c0,0.7,0.1,1.3,0.3,1.9
						c0.1,0.5-0.1,1-0.6,1.2c-0.5,0.1-1-0.1-1.2-0.6c-0.2-0.8-0.3-1.6-0.3-2.5c0-4.1,2.8-7.7,6.7-8.7c-0.2-1.1-0.6-2.6-1.6-4.3
						c-0.2-0.4-0.1-0.8,0.1-1.1l3.9-4.2c0.2-0.2,0.5-0.3,0.8-0.3s0.6,0.2,0.7,0.4c2.7,4.1,3.5,8.1,3.6,10.8c2.4,1.7,3.9,4.5,3.9,7.4
						c0,3.1-1.6,5.9-4.1,7.6v1.5c1.4,0.4,2.4,1.7,2.4,3.2C111.9,49.2,110.4,50.7,108.5,50.7L108.5,50.7z M91.5,28.7
						c-0.2,0-0.5-0.1-0.7-0.3L85.1,23c-0.4-0.4-0.4-1,0-1.3l13.2-14c1-1.1,2.4-1.6,3.9-1.5c0.6-0.6,1.5-1,2.4-1s1.7,0.4,2.4,1
						c0.7,0.7,1,1.5,1,2.4c0,1-0.5,1.9-1.2,2.6c0,0.8-0.3,2.3-1.3,3.3L92.2,28.4C92,28.6,91.8,28.7,91.5,28.7L91.5,28.7z M87.1,22.2
						l4.4,4.2l12.6-13.3c0.7-0.7,0.8-2,0.8-2.4c0-0.4,0.1-0.7,0.5-0.9s0.7-0.8,0.7-1.3c0-0.4-0.2-0.8-0.4-1.1s-0.7-0.5-1.1-0.5
						c-0.5,0-1,0.2-1.2,0.6c-0.2,0.3-0.6,0.5-1,0.4c-1-0.2-2,0.2-2.7,0.9L87.1,22.2L87.1,22.2z M92.1,38.5h-11
						c-0.5,0-0.9-0.4-0.9-0.9s0.4-0.9,0.9-0.9h11c0.5,0,0.9,0.4,0.9,0.9S92.7,38.5,92.1,38.5z"/>
					<path class="st1" d="M77.7,36.4c0.6,0.1,1.1,0.6,1.1,1.3c-0.1,0.6-0.6,1.1-1.3,1.1c-0.6-0.1-1.1-0.6-1.1-1.3
						S77.1,36.3,77.7,36.4z"/>
					<path class="st1" d="M104.7,33.9c0.6,0.1,1.1,0.6,1.1,1.3c-0.1,0.6-0.6,1.1-1.3,1.1c-0.6-0.1-1.1-0.6-1.1-1.3
						C103.5,34.4,104,33.9,104.7,33.9z"/>
					<path class="st1" d="M89.7,30.8c-0.2,0-0.3-0.1-0.5-0.2l-6.3-5.9c-0.3-0.3-0.3-0.7,0-1s0.7-0.3,1,0l6.3,5.9
						c0.3,0.3,0.3,0.7,0,1C90,30.7,89.8,30.8,89.7,30.8z"/>
				</g>
				<g>
					<path class="st1" d="M48.4,69.6V58.2h1.9V68h4.8v1.6H48.4z"/>
					<path class="st1" d="M62.7,69.6l-0.4-1.2h-0.1c-0.4,0.5-0.8,0.9-1.3,1.1s-1,0.3-1.6,0.3c-0.8,0-1.5-0.2-2-0.7s-0.7-1.1-0.7-1.9
						c0-0.9,0.3-1.6,1-2c0.7-0.5,1.7-0.7,3-0.7h1.5V64c0-0.6-0.1-1-0.4-1.2s-0.7-0.4-1.2-0.4c-0.4,0-0.9,0.1-1.3,0.2
						s-0.8,0.3-1.2,0.5l-0.6-1.3c0.5-0.2,1-0.4,1.5-0.6c0.6-0.1,1.1-0.2,1.6-0.2c1.1,0,1.9,0.2,2.5,0.7s0.8,1.2,0.8,2.3v5.8h-1.1
						V69.6z M60,68.4c0.7,0,1.2-0.2,1.6-0.6c0.4-0.4,0.6-0.9,0.6-1.6v-0.8h-1.1c-0.9,0-1.5,0.2-1.9,0.4c-0.4,0.3-0.6,0.7-0.6,1.2
						c0,0.4,0.1,0.7,0.3,0.9C59.2,68.3,59.5,68.4,60,68.4z"/>
					<path class="st1" d="M71.4,60.8c1.1,0,1.9,0.4,2.5,1.2s0.9,1.9,0.9,3.3s-0.3,2.5-0.9,3.3s-1.5,1.2-2.5,1.2
						c-1.1,0-1.9-0.4-2.5-1.2h-0.1l-0.3,1H67V57.5h1.8v2.9c0,0.2,0,0.5,0,1c0,0.4,0,0.7,0,0.8h0.1C69.4,61.3,70.3,60.8,71.4,60.8z
						 M71,62.3c-0.7,0-1.3,0.2-1.6,0.7c-0.3,0.4-0.5,1.2-0.5,2.2v0.1c0,1.1,0.2,1.8,0.5,2.3s0.9,0.7,1.6,0.7s1.1-0.3,1.5-0.8
						s0.5-1.3,0.5-2.2C73,63.3,72.3,62.3,71,62.3z"/>
					<path class="st1" d="M85.1,65.3c0,1.4-0.4,2.5-1.1,3.3s-1.7,1.2-3,1.2c-0.8,0-1.5-0.2-2.1-0.5c-0.6-0.4-1.1-0.9-1.4-1.6
						S77,66.2,77,65.3c0-1.4,0.4-2.5,1.1-3.3s1.7-1.2,3-1.2c1.2,0,2.2,0.4,3,1.2C84.7,62.8,85.1,63.9,85.1,65.3z M78.8,65.3
						c0,2,0.7,3,2.2,3s2.2-1,2.2-3s-0.7-3-2.2-3c-0.8,0-1.3,0.3-1.7,0.8C79,63.6,78.8,64.3,78.8,65.3z"/>
					<path class="st1" d="M92.1,60.8c0.4,0,0.7,0,0.9,0.1l-0.2,1.7c-0.3-0.1-0.5-0.1-0.8-0.1c-0.7,0-1.3,0.2-1.8,0.7
						s-0.7,1.1-0.7,1.9v4.5h-1.8V61h1.4l0.2,1.5h0.1c0.3-0.5,0.7-0.9,1.1-1.2S91.5,60.8,92.1,60.8z"/>
					<path class="st1" d="M100.4,69.6l-0.4-1.2l0,0c-0.4,0.5-0.8,0.9-1.3,1.1s-1,0.3-1.6,0.3c-0.8,0-1.5-0.2-2-0.7s-0.7-1.1-0.7-1.9
						c0-0.9,0.3-1.6,1-2c0.7-0.5,1.7-0.7,3-0.7h1.5V64c0-0.6-0.1-1-0.4-1.2s-0.7-0.4-1.2-0.4c-0.4,0-0.9,0.1-1.3,0.2
						s-0.8,0.3-1.2,0.5l-0.6-1.3c0.5-0.2,1-0.4,1.5-0.6c0.6-0.1,1.1-0.2,1.6-0.2c1.1,0,1.9,0.2,2.5,0.7s0.8,1.2,0.8,2.3v5.8h-1.2
						V69.6z M97.7,68.4c0.7,0,1.2-0.2,1.6-0.6s0.6-0.9,0.6-1.6v-0.8h-1.1c-0.9,0-1.5,0.2-1.9,0.4c-0.4,0.3-0.6,0.7-0.6,1.2
						c0,0.4,0.1,0.7,0.3,0.9C96.9,68.3,97.2,68.4,97.7,68.4z"/>
					<path class="st1" d="M108,68.3c0.4,0,0.9-0.1,1.3-0.2v1.4c-0.2,0.1-0.5,0.2-0.8,0.2s-0.7,0.1-1,0.1c-1.7,0-2.6-0.9-2.6-2.8
						v-4.7h-1.2v-0.8l1.3-0.7l0.6-1.8h1.1v2h2.5v1.4h-2.5V67c0,0.4,0.1,0.8,0.3,1S107.6,68.3,108,68.3z"/>
					<path class="st1" d="M119.1,65.3c0,1.4-0.4,2.5-1.1,3.3s-1.7,1.2-3,1.2c-0.8,0-1.5-0.2-2.1-0.5s-1.1-0.9-1.4-1.6
						s-0.5-1.5-0.5-2.4c0-1.4,0.4-2.5,1.1-3.3s1.7-1.2,3-1.2c1.2,0,2.2,0.4,3,1.2S119.1,63.9,119.1,65.3z M112.9,65.3
						c0,2,0.7,3,2.2,3s2.2-1,2.2-3s-0.7-3-2.2-3c-0.8,0-1.3,0.3-1.7,0.8S112.9,64.3,112.9,65.3z"/>
					<path class="st1" d="M126.1,60.8c0.4,0,0.7,0,0.9,0.1l-0.2,1.7c-0.3-0.1-0.5-0.1-0.8-0.1c-0.7,0-1.3,0.2-1.8,0.7
						s-0.7,1.1-0.7,1.9v4.5h-1.8V61h1.4l0.2,1.5h0.1c0.3-0.5,0.7-0.9,1.1-1.2S125.6,60.8,126.1,60.8z"/>
					<path class="st1" d="M128.9,58.7c0-0.3,0.1-0.6,0.3-0.8s0.4-0.3,0.8-0.3c0.3,0,0.6,0.1,0.8,0.3s0.3,0.4,0.3,0.8
						c0,0.3-0.1,0.6-0.3,0.7s-0.4,0.3-0.8,0.3c-0.3,0-0.6-0.1-0.8-0.3S128.9,59,128.9,58.7z M130.9,69.6H129V61h1.8L130.9,69.6
						L130.9,69.6z"/>
					<path class="st1" d="M141.6,65.3c0,1.4-0.4,2.5-1.1,3.3s-1.7,1.2-3,1.2c-0.8,0-1.5-0.2-2.1-0.5s-1.1-0.9-1.4-1.6
						s-0.5-1.5-0.5-2.4c0-1.4,0.4-2.5,1.1-3.3s1.7-1.2,3-1.2c1.2,0,2.2,0.4,3,1.2S141.6,63.9,141.6,65.3z M135.3,65.3
						c0,2,0.7,3,2.2,3s2.2-1,2.2-3s-0.7-3-2.2-3c-0.8,0-1.3,0.3-1.7,0.8S135.3,64.3,135.3,65.3z"/>
				</g>
			</g>
		</g>
	</g>
</g>
<g>
	<path class="st1" d="M149.7,67.2c0,0.8-0.3,1.5-0.9,1.9c-0.6,0.5-1.5,0.7-2.6,0.7c-1.2,0-2.1-0.2-2.8-0.5v-1.6c1,0.5,2,0.7,2.8,0.7
		c1.1,0,1.7-0.3,1.7-1c0-0.2-0.1-0.4-0.2-0.5s-0.3-0.3-0.6-0.5c-0.3-0.2-0.7-0.3-1.2-0.5c-1-0.4-1.7-0.8-2-1.2s-0.5-0.9-0.5-1.5
		c0-0.7,0.3-1.3,0.9-1.7c0.6-0.4,1.4-0.6,2.4-0.6c1,0,2,0.2,2.9,0.6l-0.6,1.4c-0.9-0.4-1.7-0.6-2.4-0.6c-1,0-1.5,0.3-1.5,0.8
		c0,0.3,0.1,0.5,0.4,0.7c0.3,0.2,0.8,0.4,1.7,0.8c0.7,0.3,1.2,0.5,1.6,0.8c0.3,0.2,0.6,0.5,0.7,0.8S149.7,66.7,149.7,67.2z"/>
</g>
</svg>
